<svg xmlns="http://www.w3.org/2000/svg" viewBox="0 0 64 64" width="64" height="64"><title>Chrizos Media</title><rect width="64" height="64" rx="12.8" fill="#0D3B2E"/><g transform="translate(14.8 0.5) scale(0.36852)"><path d="M-10.6 72.9L104.0 64.4L99.7 139.4L-7.4 146.8Z" fill="#D2F53C"/><g fill="#F3EFE4"><path d="M251.08154296875 -13.0400390625Q186.80126953125 -13.0400390625 142.041015625 8.219970703125Q97.28076171875 29.47998046875 69.840576171875 67.0Q42.400390625 104.52001953125 30.040283203125 153.52001953125Q17.68017578125 202.52001953125 17.68017578125 258.0Q17.68017578125 314.0 30.040283203125 364.5Q42.400390625 415.0 69.340576171875 454.780029296875Q96.28076171875 494.56005859375 140.781005859375 517.56005859375Q185.28125 540.56005859375 249.08154296875 540.56005859375Q324.44189453125 540.56005859375 370.422119140625 509.06005859375Q416.40234375 477.56005859375 433.782470703125 427.080078125Q451.16259765625 376.60009765625 440.72265625 317.64013671875L300.72265625 304.72021484375Q304.16259765625 340.240234375 298.742431640625 365.66015625Q293.322265625 391.080078125 280.08203125 404.739990234375Q266.841796875 418.39990234375 245.6015625 418.39990234375Q227.84130859375 418.39990234375 214.861083984375 408.679931640625Q201.880859375 398.9599609375 193.460693359375 379.97998046875Q185.04052734375 361.0 180.9404296875 333.719970703125Q176.84033203125 306.43994140625 176.84033203125 270.7998046875Q176.84033203125 216.0 184.98046875 179.0400390625Q193.12060546875 142.080078125 209.90087890625 123.56005859375Q226.68115234375 105.0400390625 252.12158203125 105.0400390625Q280.001953125 105.0400390625 293.2421875 125.199951171875Q306.482421875 145.35986328125 309.6025390625 175.019775390625Q312.72265625 204.6796875 308.72265625 232.15966796875L451.962890625 221.31982421875Q459.40283203125 178.27978515625 452.7626953125 136.539794921875Q446.12255859375 94.7998046875 422.662353515625 60.83984375Q399.2021484375 26.8798828125 356.98193359375 6.919921875Q314.76171875 -13.0400390625 251.08154296875 -13.0400390625Z" transform="translate(0.00 132.00) scale(0.20000 -0.20000)"/></g><clipPath id="hlsvg"><path d="M-10.6 72.9L104.0 64.4L99.7 139.4L-7.4 146.8Z"/></clipPath><g fill="#111210" clip-path="url(#hlsvg)"><path d="M251.08154296875 -13.0400390625Q186.80126953125 -13.0400390625 142.041015625 8.219970703125Q97.28076171875 29.47998046875 69.840576171875 67.0Q42.400390625 104.52001953125 30.040283203125 153.52001953125Q17.68017578125 202.52001953125 17.68017578125 258.0Q17.68017578125 314.0 30.040283203125 364.5Q42.400390625 415.0 69.340576171875 454.780029296875Q96.28076171875 494.56005859375 140.781005859375 517.56005859375Q185.28125 540.56005859375 249.08154296875 540.56005859375Q324.44189453125 540.56005859375 370.422119140625 509.06005859375Q416.40234375 477.56005859375 433.782470703125 427.080078125Q451.16259765625 376.60009765625 440.72265625 317.64013671875L300.72265625 304.72021484375Q304.16259765625 340.240234375 298.742431640625 365.66015625Q293.322265625 391.080078125 280.08203125 404.739990234375Q266.841796875 418.39990234375 245.6015625 418.39990234375Q227.84130859375 418.39990234375 214.861083984375 408.679931640625Q201.880859375 398.9599609375 193.460693359375 379.97998046875Q185.04052734375 361.0 180.9404296875 333.719970703125Q176.84033203125 306.43994140625 176.84033203125 270.7998046875Q176.84033203125 216.0 184.98046875 179.0400390625Q193.12060546875 142.080078125 209.90087890625 123.56005859375Q226.68115234375 105.0400390625 252.12158203125 105.0400390625Q280.001953125 105.0400390625 293.2421875 125.199951171875Q306.482421875 145.35986328125 309.6025390625 175.019775390625Q312.72265625 204.6796875 308.72265625 232.15966796875L451.962890625 221.31982421875Q459.40283203125 178.27978515625 452.7626953125 136.539794921875Q446.12255859375 94.7998046875 422.662353515625 60.83984375Q399.2021484375 26.8798828125 356.98193359375 6.919921875Q314.76171875 -13.0400390625 251.08154296875 -13.0400390625Z" transform="translate(0.00 132.00) scale(0.20000 -0.20000)"/></g></g></svg>
